<svg width="97" height="49" viewBox="0 0 97 49" fill="none" xmlns="http://www.w3.org/2000/svg">
<path d="M95.9384 29.6047C95.8089 29.5508 95.6722 29.5163 95.5327 29.5022C95.2487 29.4875 94.9662 29.5524 94.717 29.6894C94.4965 29.82 94.3173 30.01 94.1999 30.2377C93.8611 30.7503 93.607 31.312 93.3084 31.8425C92.8566 32.571 92.342 33.2586 91.7705 33.8975C91.24 34.5215 90.6338 35.0743 90.0676 35.6805C90.0209 35.7414 89.9557 35.7856 89.8818 35.8065C89.8079 35.8273 89.7293 35.8238 89.6575 35.7964C89.6034 35.755 89.5622 35.6991 89.5385 35.6352C89.5149 35.5713 89.5097 35.502 89.5238 35.4353C89.6887 33.9197 89.8135 32.3952 90.0186 30.8796C90.1033 30.1887 90.188 29.5423 90.2771 28.8336C90.3886 27.8529 90.5045 26.8766 90.6204 25.896L91.5699 18.581C91.659 18.0639 91.6858 17.0832 91.026 16.5081C90.7614 16.2677 90.4306 16.1124 90.0766 16.0624C89.7237 16.0376 89.3715 16.1183 89.0647 16.2942C88.1731 16.945 87.8611 18.3224 87.6159 19.3477C87.0409 21.7593 86.8893 24.3135 85.7303 26.5512C85.5 26.9981 85.23 27.4232 84.9235 27.8217C84.7202 28.1046 84.4681 28.3491 84.1791 28.5438C83.8881 28.7377 83.535 28.8156 83.1895 28.7622C82.9758 28.7059 82.7783 28.6003 82.6126 28.4541C82.447 28.3078 82.3179 28.1248 82.2355 27.9197C82.0753 27.5092 81.9936 27.0722 81.9948 26.6315C81.9263 24.4622 82.2495 22.2983 82.9488 20.2437C83.1363 19.7512 83.2708 19.2401 83.35 18.7191C83.4659 18.0817 83.4659 17.1902 82.9042 16.6419C82.6415 16.3892 82.3179 16.2088 81.9648 16.1182C81.6117 16.0276 81.2412 16.0299 80.8893 16.1248C80.5406 16.2655 80.2264 16.4796 79.9679 16.7527C79.7094 17.0258 79.5129 17.3514 79.3916 17.7073C78.5936 19.5616 78.3797 21.5141 78.1256 23.5022C77.9891 24.8089 77.5871 26.074 76.9443 27.2199C76.5228 27.9473 76.0204 28.6247 75.4465 29.2392C75.165 29.5527 74.8562 29.8406 74.5238 30.0995C74.3418 30.2591 74.1297 30.3807 73.9001 30.4572C73.6705 30.5338 73.4279 30.5637 73.1865 30.5453C72.9463 30.5061 72.719 30.41 72.5236 30.2649C72.3282 30.1199 72.1703 29.9302 72.0632 29.7117C71.8601 29.3169 71.733 28.8875 71.6887 28.4457C71.5638 27.6363 71.516 26.8169 71.5461 25.9985C71.528 25.114 71.5862 24.2296 71.7199 23.3551C72.032 21.7905 74.4436 15.6077 74.9696 13.994C75.5313 12.3553 76.003 10.6872 76.3826 8.997C76.7223 7.48662 76.8721 5.93974 76.8284 4.39225C76.7883 3.30458 76.552 2.10547 75.6783 1.45911C75.3234 1.22323 74.9146 1.08077 74.4899 1.04492C74.0652 1.00908 73.6384 1.08101 73.2489 1.25406C72.4702 1.61129 71.8287 2.21209 71.4213 2.9658C71.0199 3.71467 70.7201 4.51368 70.5297 5.34173C70.0829 7.04872 69.7243 8.77761 69.4555 10.5215C69.1835 12.2154 68.9027 13.9004 68.6308 15.5943C68.399 17.0208 67.8106 22.0579 67.5832 23.1233C67.3181 24.2202 66.9152 25.2791 66.3841 26.2749C65.8448 27.3358 65.341 28.4145 64.7437 29.4487C64.5727 29.7899 64.3347 30.0931 64.0439 30.3402C63.8927 30.4621 63.7115 30.541 63.5193 30.5684C63.327 30.5959 63.131 30.571 62.9517 30.4963C62.7569 30.3711 62.5944 30.2017 62.4775 30.0018C62.3605 29.802 62.2924 29.5773 62.2786 29.3462C61.9621 27.6077 62.2385 25.838 62.5684 24.1263C62.8983 22.4145 64.3514 14.5156 64.659 12.6969C65.0513 10.5795 65.6263 8.48883 65.8002 6.33132C65.925 4.7756 66.1657 2.82761 65.0023 1.58393C64.7739 1.35168 64.4914 1.17995 64.1801 1.08423C63.8688 0.988505 63.5386 0.971806 63.2192 1.03564C62.5737 1.2237 62.0209 1.64463 61.6679 2.21691C61.2299 2.78547 60.8798 3.41657 60.6293 4.08912C60.1969 5.28103 59.8513 6.50264 59.5951 7.7444L59.4792 8.26595C59.1447 9.79996 58.8903 11.3503 58.717 12.9108C58.6248 13.7489 58.5461 14.5899 58.4807 15.4339C58.4495 15.844 58.4049 16.2585 58.3916 16.6686C58.4214 16.9974 58.3803 17.3288 58.2712 17.6404C58.2241 17.7466 58.1541 17.841 58.0662 17.9168C57.6926 18.1445 57.2484 18.227 56.818 18.1486C54.5892 18.0817 52.6144 19.3432 51.3841 21.1664C50.7229 22.2065 50.2013 23.329 49.8329 24.5052C49.7705 24.7058 49.6858 24.9064 49.6011 25.1114C49.3522 25.8135 49.0543 26.4972 48.7095 27.1575C48.3407 27.8061 47.9172 28.422 47.4436 28.9985C46.9842 29.5986 46.4627 30.1484 45.8878 30.6389C45.3094 31.157 44.6056 31.5151 43.8463 31.6775C43.4434 31.7287 43.0342 31.6822 42.6532 31.5417C42.2723 31.4013 41.9307 31.1711 41.6575 30.8707C41.1573 30.2577 40.8626 29.5029 40.815 28.7132C40.7756 28.4869 40.82 28.2539 40.9399 28.0579C41.0584 27.9465 41.199 27.8611 41.3525 27.8074C41.5061 27.7536 41.6692 27.7327 41.8314 27.7459C43.0398 27.6495 44.1972 27.2168 45.1724 26.4967C46.1477 25.7767 46.902 24.7981 47.35 23.6716C47.8945 22.3509 48.0642 20.9056 47.8403 19.4948C47.7354 18.8042 47.4797 18.1452 47.0914 17.5646C46.6893 16.9968 46.1409 16.5486 45.5045 16.2674C44.8596 16.002 44.1682 15.8681 43.4709 15.8734C42.7735 15.8788 42.0843 16.0234 41.4436 16.2986C39.1434 17.2214 37.6456 19.263 36.8968 22.5393L36.8121 22.8826C36.3663 24.844 35.8893 26.8945 34.4763 28.2986C34.2967 28.5061 34.0693 28.6668 33.8139 28.767C33.5584 28.8672 33.2824 28.9038 33.0097 28.8737C32.9169 28.8564 32.8289 28.8192 32.752 28.7645C32.675 28.7099 32.6108 28.6391 32.5639 28.5572C32.1895 27.9242 32.5907 26.4264 33.1702 24.5453C33.3344 24.0653 33.4684 23.5755 33.5714 23.0787C33.6115 22.3874 33.4571 21.6986 33.1256 21.0906C32.7773 20.5225 32.2664 20.0721 31.659 19.7979C31.0577 19.5921 30.4199 19.5147 29.7868 19.5706H29.5862C29.3822 19.5792 29.178 19.5582 28.98 19.5081C28.848 19.4782 28.7258 19.4149 28.6252 19.3244C28.5245 19.2339 28.4487 19.1191 28.4049 18.9911C28.3501 18.6833 28.37 18.3668 28.4629 18.0683C28.4896 17.9836 28.5208 17.8677 28.5476 17.783C28.6248 17.4743 28.6026 17.1491 28.4842 16.8537C28.3657 16.5584 28.157 16.3079 27.8878 16.1382C27.6094 15.9677 27.2945 15.8659 26.9689 15.8411C26.6434 15.8163 26.3167 15.8692 26.0156 15.9955C25.3906 16.2882 24.8764 16.7743 24.5491 17.3818C24.2087 17.9645 24.0664 18.6417 24.1434 19.312C24.3348 19.9256 24.3941 20.5728 24.3173 21.211C24.0855 22.3343 23.4257 23.2526 22.7615 24.1753C22.6144 24.3759 22.4718 24.6211 22.3158 24.8083C21.5006 26.0133 20.5543 27.1241 19.4941 28.1203C18.1017 29.4242 16.3956 30.3456 14.5416 30.7949C11.5506 31.4547 8.49706 30.5542 6.88339 27.8484C6.02787 26.2876 5.54572 24.5497 5.47477 22.7711C5.24535 19.3252 5.84771 15.8746 7.23109 12.7102C8.54164 9.66565 10.4896 6.61662 14.1003 6.23772C15.5045 6.09061 17.1182 6.57649 17.7467 7.84247C18.1925 8.7652 18.0454 9.87516 17.7467 10.8648C17.448 11.8544 17.0424 12.8306 17.0246 13.8603C17.0067 14.89 17.5238 16.0312 18.5089 16.3298C19.4941 16.6285 20.506 16.0089 21.0587 15.1753C21.6115 14.3417 21.8032 13.3298 22.0439 12.3581C22.6073 10.063 23.5007 7.86175 24.6962 5.82315C25.2489 4.88259 25.8908 3.86178 25.7036 2.78749C25.6314 2.40095 25.4556 2.04126 25.195 1.74685C24.9343 1.45243 24.5986 1.23434 24.2237 1.11587C23.8452 1.00835 23.4448 1.00547 23.0648 1.10751C22.6849 1.20956 22.3398 1.41272 22.0662 1.69537C21.5268 2.2704 21.2593 3.17085 20.5149 3.42494C19.7705 3.67902 19.1196 3.21097 18.4822 2.86773C16.0974 1.58393 13.133 1.6285 10.6189 2.66268C8.12416 3.76851 6.00859 5.58185 4.53422 7.87813C2.29846 11.1571 0.938857 14.9536 0.584744 18.9064C0.473298 20.289 0.473298 21.6783 0.584744 23.0609C0.680546 24.6933 0.966266 26.3089 1.43614 27.8752C1.91403 29.4471 2.65401 30.9271 3.62485 32.2526C4.59749 33.5663 5.9 34.5997 7.40048 35.2481C8.91797 35.8556 10.5456 36.1395 12.1791 36.0817C13.8146 36.0137 15.4204 35.6228 16.9042 34.9316C18.3994 34.2317 19.7853 33.3188 21.0186 32.2214C22.2806 31.1718 23.412 29.9746 24.3886 28.6552C25.0562 27.763 25.6524 26.8196 26.1717 25.8336C26.4302 25.3343 26.6709 24.8217 26.8893 24.3001C26.9461 24.0789 27.0468 23.8714 27.1854 23.6899C27.324 23.5084 27.4977 23.3567 27.6962 23.2437C27.8209 23.1738 27.9634 23.142 28.1061 23.1523C28.2487 23.1626 28.3851 23.2145 28.4985 23.3016C28.7422 23.4112 28.9373 23.6062 29.0468 23.8499C29.1866 24.2863 29.1772 24.7568 29.0201 25.1872V25.2451C28.9042 25.6463 28.7883 26.0475 28.6457 26.4532C28.0974 28.1515 27.6962 29.7073 28.0127 31.2318C28.1558 32.0101 28.5035 32.7363 29.0201 33.3358C29.5485 33.913 30.2604 34.2894 31.0349 34.4012C32.0376 34.5107 33.0505 34.3264 33.9503 33.8707C34.5298 33.5983 35.0673 33.244 35.5461 32.8187C35.794 32.5952 36.0235 32.3523 36.2326 32.0921C36.4243 31.8514 36.6026 31.4948 36.9636 31.5171C37.0527 31.5256 37.1387 31.5536 37.2158 31.599C37.2928 31.6445 37.3589 31.7063 37.4094 31.7801C37.5032 31.9194 37.581 32.069 37.6412 32.2258C38.1166 33.2407 38.8734 34.0978 39.8216 34.6952C40.7699 35.2926 41.8697 35.6052 42.9904 35.5958H43.2801C44.3864 35.5524 45.4666 35.2469 46.4317 34.7043C47.464 34.0923 48.4137 33.3508 49.2578 32.4977C49.3289 32.4189 49.4197 32.3605 49.5208 32.3284C49.5959 32.3207 49.6717 32.3322 49.741 32.3619C49.8104 32.3915 49.8712 32.4382 49.9176 32.4977C50.0043 32.6229 50.0733 32.7594 50.1226 32.9034C50.4102 33.5816 50.8625 34.1774 51.4385 34.6367C52.0145 35.0959 52.696 35.4041 53.4213 35.5334C54.1494 35.6464 54.8942 35.5755 55.5879 35.3272C56.2816 35.0788 56.9021 34.6609 57.393 34.1114C57.5867 33.8534 57.8062 33.6159 58.0483 33.4027C58.1695 33.2996 58.3146 33.2284 58.4703 33.1957C58.626 33.163 58.7874 33.1698 58.9399 33.2154C59.3544 33.3848 59.4837 33.8885 59.6665 34.2942C59.889 34.7529 60.238 35.1384 60.6724 35.4054C61.1068 35.6723 61.6084 35.8095 62.1182 35.8009C63.2769 35.7459 64.3722 35.2555 65.185 34.4279C65.9406 33.6671 66.638 32.8505 67.2712 31.9851C67.3803 31.827 67.5196 31.6921 67.6813 31.5884C67.7635 31.5393 67.8575 31.5134 67.9532 31.5134C68.049 31.5134 68.1429 31.5393 68.2251 31.5884C68.3347 31.6918 68.4148 31.8226 68.4569 31.9673C68.8026 32.7516 69.3727 33.4161 70.0953 33.877C70.818 34.3379 71.6609 34.5745 72.5179 34.5572C74.1979 34.4544 75.7765 33.7185 76.9354 32.4977C77.258 32.0796 77.7091 31.7789 78.2192 31.6419C78.7764 31.5795 79.0439 32.0876 79.24 32.5334C79.4382 33.0667 79.7866 33.5311 80.243 33.8707C80.5557 34.0966 80.9146 34.2501 81.2939 34.3203C81.6732 34.3904 82.0633 34.3754 82.4361 34.2763C83.1874 34.0641 83.8522 33.6194 84.3351 33.0059C84.6204 32.6538 84.7809 32.1991 85.0973 31.8737C85.4138 31.5483 85.6055 31.9807 85.6367 32.2615C85.6828 32.734 85.6932 33.2094 85.6679 33.6835C85.6189 34.624 85.4584 35.5557 85.3381 36.4918C85.3301 36.764 85.2417 37.0277 85.084 37.2496C84.9462 37.3714 84.781 37.4582 84.6025 37.5024C84.424 37.5467 84.2374 37.5471 84.0587 37.5037C83.613 37.4413 83.2162 37.4056 82.7794 37.3833L82.2311 37.3254C81.4287 37.2719 80.6174 37.1827 79.7838 37.156H79.0349C77.6353 37.121 76.2406 37.3353 74.9161 37.789C73.991 38.1387 73.153 38.6854 72.4602 39.3913C71.7675 40.0971 71.2365 40.9452 70.9042 41.8766C70.6211 42.7002 70.552 43.5822 70.7036 44.4398C70.8656 45.3025 71.2532 46.1069 71.8269 46.7711C72.407 47.4279 73.114 47.9604 73.9054 48.3366C74.6968 48.7127 75.5561 48.9248 76.4317 48.9599C78.2168 49.0252 79.9925 48.671 81.6159 47.9257C83.2692 47.2291 84.7412 46.1637 85.9195 44.8108C87.0977 43.458 87.9509 41.8536 88.4138 40.1203C88.4148 40.0834 88.4262 40.0474 88.4467 40.0167C88.4672 39.9859 88.496 39.9616 88.5297 39.9465C89.6949 39.5501 90.7923 38.9773 91.7838 38.2481C92.7665 37.5024 93.6464 36.63 94.4005 35.6538C94.764 35.1805 95.1018 34.6879 95.4124 34.1783C95.711 33.6835 95.9517 33.153 96.237 32.6449C96.4791 32.2564 96.6581 31.8322 96.7675 31.3878C96.8232 31.1617 96.8326 30.9266 96.7951 30.6968C96.7575 30.467 96.6738 30.2471 96.5491 30.0505C96.3926 29.8463 96.1806 29.6915 95.9384 29.6047M41.1092 23.0787C41.1761 22.789 41.2653 22.5037 41.35 22.2407C41.5842 21.5165 41.9334 20.8347 42.3841 20.2214C42.5354 20.0084 42.7207 19.8217 42.9324 19.6686C43.1474 19.5169 43.4115 19.4517 43.6724 19.4859C43.8855 19.5441 44.0762 19.6648 44.22 19.8325C44.3638 20.0001 44.4541 20.207 44.4792 20.4264C44.5377 21.1962 44.3835 21.9672 44.0335 22.6553C43.7553 23.3031 43.3257 23.8749 42.7809 24.3224C42.5593 24.4978 42.3186 24.6473 42.0632 24.7682C41.9207 24.8266 41.7706 24.8641 41.6174 24.8796H41.5595C41.4472 24.8892 41.335 24.8604 41.2411 24.7981C41.1472 24.7358 41.0772 24.6436 41.0424 24.5364C40.9792 24.0441 41.014 23.5441 41.1449 23.0654M58.4317 22.3209C58.4094 22.624 58.3336 22.9272 58.3113 23.2125C58.289 23.6003 58.2712 23.9881 58.2623 24.3759C58.2623 25.0312 58.2623 25.6909 58.3158 26.3462C58.3693 27.0015 58.4985 27.5408 58.2623 28.1292C58.0126 28.8758 57.5659 29.5411 56.9696 30.055C56.6707 30.3065 56.3412 30.5191 55.9889 30.6879C55.6844 30.8403 55.3487 30.9196 55.0082 30.9197C54.9235 30.9197 54.8656 30.893 54.7809 30.893C54.5562 30.8744 54.34 30.7982 54.1534 30.6717C53.9668 30.5452 53.8159 30.3727 53.7155 30.1709C53.5185 29.8328 53.3813 29.4634 53.3098 29.0787C53.0028 27.582 53.1028 26.0303 53.5996 24.5854C53.9136 23.6785 54.4393 22.8594 55.133 22.1961C55.7454 21.6141 56.5488 21.275 57.393 21.2422C57.5387 21.229 57.6855 21.2451 57.8248 21.2895C57.9641 21.3339 58.0932 21.4057 58.2043 21.5007C58.3665 21.6794 58.4514 21.9149 58.4406 22.156C58.4406 22.205 58.4406 22.2585 58.4406 22.312M84.2147 40.9405C84.1362 41.1408 84.0313 41.3297 83.9027 41.5022C83.7121 41.835 83.4896 42.1485 83.2385 42.4383C82.852 42.878 82.4285 43.2836 81.9725 43.6508C81.0353 44.3542 79.978 44.8813 78.8522 45.2065C78.2134 45.3783 77.5565 45.4741 76.8953 45.4918H76.7526C75.9994 45.5 75.2667 45.2464 74.6798 44.7741C74.3628 44.516 74.1402 44.1602 74.0468 43.7622C73.9911 43.3486 74.061 42.9277 74.2474 42.5542C74.5576 41.8715 75.0992 41.3205 75.7764 40.9985C77.0645 40.4487 78.47 40.2311 79.8641 40.3655L81.4777 40.4547C81.9235 40.4769 82.3381 40.5126 82.7705 40.5438C83.0023 40.5438 83.2162 40.5438 83.4614 40.5884C83.6415 40.5847 83.8216 40.5921 84.0008 40.6107C84.2058 40.6686 84.2459 40.7934 84.2058 40.9405" fill="#FF6A00"/>
<path d="M29.6442 44.6136V39.5586H30.3262V41.4843C30.4626 41.2934 30.6425 41.1376 30.851 41.0299C31.0595 40.9221 31.2906 40.8655 31.5253 40.8647C32.4792 40.8647 33.1523 41.6136 33.1523 42.786C33.1523 43.9583 32.4703 44.7028 31.5253 44.7028C31.2918 44.7009 31.0619 44.6447 30.8538 44.5387C30.6457 44.4327 30.4651 44.2798 30.3262 44.0921V44.6136H29.6442ZM30.3262 43.5661C30.4403 43.7298 30.5924 43.8635 30.7693 43.9559C30.9463 44.0482 31.1429 44.0965 31.3425 44.0965C32.0246 44.0965 32.448 43.5527 32.448 42.786C32.448 42.0193 32.0246 41.471 31.3425 41.471C31.1421 41.4743 30.9454 41.5254 30.7686 41.62C30.5919 41.7146 30.4402 41.8499 30.3262 42.0148V43.5661Z" fill="#505759"/>
<path d="M34.1375 45.4339C34.2344 45.4707 34.337 45.4903 34.4406 45.4918C34.5568 45.5038 34.6735 45.4747 34.7704 45.4095C34.8673 45.3444 34.9383 45.2473 34.9711 45.1352L35.185 44.6493L33.6783 40.9539H34.4228L35.5639 43.8246L36.7096 40.9539H37.4451L35.6397 45.309C35.5603 45.5507 35.4031 45.7592 35.1926 45.902C34.9821 46.0448 34.7301 46.1137 34.4763 46.0981C34.3261 46.0975 34.1765 46.0796 34.0305 46.0446L34.1375 45.4339Z" fill="#505759"/>
<path d="M40.3292 44.6137V39.5587H42.4465C42.6574 39.5435 42.8691 39.573 43.0679 39.645C43.2666 39.717 43.448 39.8301 43.6002 39.9768C43.7524 40.1235 43.872 40.3007 43.9513 40.4967C44.0305 40.6927 44.0676 40.9031 44.0602 41.1144C44.0663 41.3251 44.0282 41.5348 43.9485 41.7299C43.8687 41.9251 43.7489 42.1013 43.597 42.2474C43.445 42.3935 43.2641 42.5062 43.066 42.5783C42.8679 42.6503 42.6569 42.6801 42.4465 42.6657H41.1093V44.6137H40.3292ZM42.3618 40.2273H41.1093V42.0104H42.3841C42.5045 42.0158 42.6248 41.9968 42.7377 41.9544C42.8505 41.912 42.9536 41.8472 43.0406 41.7639C43.1277 41.6806 43.197 41.5804 43.2443 41.4696C43.2916 41.3587 43.3159 41.2394 43.3158 41.1189C43.3161 40.9963 43.2911 40.8751 43.2425 40.7626C43.1938 40.6502 43.1225 40.549 43.033 40.4653C42.9435 40.3817 42.8377 40.3174 42.7222 40.2764C42.6068 40.2355 42.4841 40.2188 42.3618 40.2273V40.2273Z" fill="#505759"/>
<path d="M46.5298 40.8648C47.6263 40.8648 48.3128 41.7206 48.3128 42.8395V43.0089H45.4198C45.4371 43.3234 45.577 43.6187 45.8096 43.8312C46.0421 44.0437 46.3487 44.1566 46.6635 44.1456C47.0687 44.1429 47.457 43.9831 47.7467 43.6998L48.0632 44.1456C47.6638 44.5138 47.135 44.7093 46.5922 44.6894C46.3385 44.6991 46.0856 44.6558 45.8496 44.5622C45.6136 44.4687 45.3997 44.3271 45.2215 44.1464C45.0432 43.9656 44.9046 43.7497 44.8144 43.5124C44.7242 43.2752 44.6845 43.0217 44.6977 42.7682C44.6893 42.522 44.7305 42.2766 44.8187 42.0466C44.9069 41.8165 45.0404 41.6066 45.2112 41.4291C45.3821 41.2516 45.5868 41.1102 45.8133 41.0132C46.0398 40.9163 46.2834 40.8658 46.5298 40.8648V40.8648ZM45.4064 42.5141H47.6353C47.6371 42.3687 47.6095 42.2243 47.5542 42.0898C47.4988 41.9553 47.4169 41.8334 47.3132 41.7313C47.2095 41.6293 47.0862 41.5493 46.9508 41.4961C46.8154 41.443 46.6707 41.4178 46.5253 41.422C46.2304 41.4231 45.9479 41.5402 45.7385 41.7478C45.5292 41.9555 45.4099 42.2371 45.4064 42.5319V42.5141Z" fill="#505759"/>
<path d="M51.6115 44.6137V44.2125C51.4586 44.3743 51.2729 44.5017 51.067 44.5863C50.861 44.6708 50.6394 44.7105 50.4169 44.7028C50.2526 44.7107 50.0885 44.6851 49.9344 44.6278C49.7803 44.5704 49.6394 44.4824 49.5203 44.3691C49.4011 44.2558 49.3062 44.1195 49.2411 43.9684C49.1761 43.8174 49.1424 43.6548 49.142 43.4903C49.1396 43.3259 49.1716 43.1628 49.2359 43.0114C49.3002 42.86 49.3954 42.7237 49.5154 42.6113C49.6354 42.4988 49.7776 42.4127 49.9328 42.3583C50.088 42.304 50.2529 42.2826 50.4169 42.2957C50.6394 42.2845 50.8617 42.3221 51.0681 42.4061C51.2745 42.49 51.46 42.6182 51.6115 42.7816V42.1753C51.6115 41.7296 51.2415 41.4443 50.72 41.4443C50.5129 41.445 50.3082 41.4885 50.1187 41.5721C49.9292 41.6558 49.7591 41.7776 49.6189 41.9302L49.3247 41.4621C49.5219 41.2664 49.7566 41.1125 50.0148 41.0099C50.273 40.9072 50.5492 40.8579 50.827 40.8648C51.6204 40.8648 52.2935 41.2125 52.2935 42.1441V44.6137H51.6115ZM51.6115 43.1872C51.4974 43.0502 51.3531 42.9414 51.1899 42.8695C51.0267 42.7976 50.8491 42.7644 50.671 42.7727C50.5674 42.7609 50.4625 42.7708 50.3629 42.8016C50.2633 42.8325 50.1712 42.8837 50.0924 42.952C50.0137 43.0203 49.9499 43.1042 49.9052 43.1984C49.8606 43.2926 49.8359 43.395 49.8329 43.4993C49.8359 43.6035 49.8606 43.7059 49.9052 43.8001C49.9499 43.8943 50.0137 43.9782 50.0924 44.0465C50.1712 44.1148 50.2633 44.166 50.3629 44.1969C50.4625 44.2278 50.5674 44.2376 50.671 44.2259C50.8491 44.2341 51.0267 44.2009 51.1899 44.129C51.3531 44.0571 51.4974 43.9483 51.6115 43.8113V43.1872Z" fill="#505759"/>
<path d="M53.5907 44.6137V40.9539H54.2727V41.5156C54.4095 41.3241 54.5883 41.1663 54.7953 41.0543C55.0023 40.9423 55.2322 40.879 55.4674 40.8692V41.5602C55.3888 41.5523 55.3097 41.5523 55.2311 41.5602C55.0403 41.5703 54.854 41.6227 54.686 41.7137C54.5179 41.8047 54.3722 41.9319 54.2593 42.0862V44.6315L53.5907 44.6137Z" fill="#505759"/>
<path d="M56.3322 43.6374C56.6592 43.9642 57.1003 44.1512 57.5625 44.159C58.0751 44.159 58.3515 43.945 58.3515 43.6374C58.3515 43.3299 57.9325 43.1516 57.46 43.0446C56.8359 42.9019 56.1227 42.7325 56.1227 41.948C56.1227 41.364 56.6219 40.8648 57.5179 40.8648C58.0333 40.8494 58.5342 41.0366 58.9132 41.3863L58.61 41.8633C58.4712 41.7168 58.3028 41.6013 58.1161 41.5245C57.9294 41.4477 57.7286 41.4112 57.5268 41.4175C57.0811 41.4175 56.7735 41.5958 56.7735 41.8945C56.7735 42.1932 57.1702 42.3403 57.6249 42.425C58.2579 42.5676 59.0157 42.7415 59.0157 43.584C59.0157 44.2125 58.503 44.7028 57.5402 44.7028C57.2611 44.7153 56.9824 44.6717 56.7205 44.5744C56.4586 44.4772 56.219 44.3283 56.0157 44.1367L56.3322 43.6374Z" fill="#505759"/>
<path d="M59.8314 42.7816C59.8172 42.5318 59.8548 42.2818 59.9419 42.0473C60.0289 41.8127 60.1636 41.5987 60.3373 41.4187C60.511 41.2387 60.7201 41.0966 60.9514 41.0013C61.1827 40.9059 61.4312 40.8595 61.6813 40.8648C61.9313 40.8594 62.1796 40.9059 62.4107 41.0013C62.6417 41.0966 62.8506 41.2388 63.0239 41.4189C63.1973 41.599 63.3315 41.8131 63.4181 42.0476C63.5046 42.2821 63.5416 42.532 63.5268 42.7816C63.5423 43.0315 63.5057 43.2819 63.4195 43.5169C63.3332 43.752 63.1991 43.9666 63.0257 44.1472C62.8522 44.3277 62.6432 44.4704 62.4118 44.566C62.1804 44.6616 61.9317 44.7082 61.6813 44.7028C61.431 44.7075 61.1824 44.6605 60.9511 44.5646C60.7198 44.4688 60.5108 44.3263 60.3371 44.1459C60.1634 43.9655 60.0289 43.7513 59.9419 43.5165C59.8549 43.2817 59.8173 43.0315 59.8314 42.7816ZM62.818 42.7816C62.8353 42.6198 62.819 42.4561 62.7703 42.3009C62.7215 42.1456 62.6414 42.002 62.5347 41.8791C62.4281 41.7561 62.2973 41.6565 62.1505 41.5863C62.0037 41.5161 61.844 41.4768 61.6813 41.471C61.5187 41.4768 61.359 41.5161 61.2122 41.5863C61.0654 41.6565 60.9346 41.7561 60.828 41.8791C60.7213 42.002 60.6411 42.1456 60.5924 42.3009C60.5437 42.4561 60.5274 42.6198 60.5446 42.7816C60.5274 42.9436 60.5437 43.1075 60.5924 43.263C60.6411 43.4185 60.7212 43.5624 60.8277 43.6856C60.9343 43.8089 61.0651 43.909 61.2119 43.9797C61.3587 44.0504 61.5185 44.0902 61.6813 44.0966C61.8448 44.0914 62.0054 44.0525 62.153 43.9823C62.3007 43.9121 62.4323 43.8121 62.5394 43.6886C62.6466 43.5651 62.7271 43.4208 62.7758 43.2647C62.8245 43.1086 62.8404 42.9441 62.8225 42.7816H62.818Z" fill="#505759"/>
<path d="M67.0572 44.6137V42.2734C67.0572 41.6672 66.7452 41.471 66.2771 41.471C66.0799 41.477 65.8867 41.5279 65.7121 41.6198C65.5376 41.7117 65.3863 41.8423 65.2697 42.0015V44.6137H64.5877V40.9539H65.2697V41.471C65.4296 41.2838 65.6277 41.1328 65.8506 41.0283C66.0735 40.9237 66.3162 40.868 66.5624 40.8648C66.7223 40.8443 66.8846 40.8608 67.0371 40.9129C67.1895 40.9651 67.3279 41.0516 67.4416 41.1658C67.5553 41.2799 67.6413 41.4186 67.6929 41.5713C67.7445 41.7239 67.7604 41.8863 67.7393 42.0461V44.6137H67.0572Z" fill="#505759"/>
</svg>
